<?xml version="1.0" standalone="no"?>
<!DOCTYPE svg PUBLIC "-//W3C//DTD SVG 20010904//EN"
 "http://www.w3.org/TR/2001/REC-SVG-20010904/DTD/svg10.dtd">
<svg version="1.0" xmlns="http://www.w3.org/2000/svg"
 width="70.000000pt" height="100.000000pt" viewBox="0 0 70.000000 100.000000"
 preserveAspectRatio="xMidYMid meet">

<g transform="translate(0.000000,100.000000) scale(0.100000,-0.100000)"
fill="#000" stroke="none">
<path d="M70 840 l0 -90 130 0 130 0 0 -260 c0 -253 1 -260 20 -260 19 0 20 7
20 260 l0 260 130 0 130 0 0 90 0 90 -280 0 -280 0 0 -90z"/>
<path d="M92 702 c-13 -4 -23 -10 -23 -14 1 -5 1 -145 1 -313 l0 -305 280 0
280 0 0 316 0 315 -27 -3 c-25 -3 -32 -18 -136 -303 -60 -165 -112 -303 -116
-307 -3 -4 -57 134 -120 307 -63 173 -115 315 -115 314 -1 -1 -11 -4 -24 -7z"/>
</g>
</svg>
